<?xml version="1.0" encoding="UTF-8"?>
<!-- Generator: visioncortex VTracer 0.6.3 -->
<svg version="1.1" xmlns="http://www.w3.org/2000/svg" width="512" height="512">
<path d="M0 0 C0.88 0 1.76 0 2.67 0.01 C16.11 0.06 29.18 0.56 42.38 3.31 C43.85 3.61 43.85 3.61 45.36 3.91 C85.19 12.15 121.62 30.53 151.38 58.31 C153.1 59.83 154.83 61.36 156.56 62.88 C160.87 66.77 164.7 70.82 168.38 75.31 C168.81 75.83 169.24 76.35 169.68 76.88 C200.72 114.32 222.29 161.88 222.58 211.17 C222.59 211.98 222.59 212.8 222.6 213.64 C222.83 247.75 222.83 247.75 219.38 264.31 C219.08 265.79 219.08 265.79 218.77 267.29 C214.45 288.2 207.46 307.52 197.38 326.31 C197.04 326.95 196.7 327.6 196.36 328.26 C188.29 343.65 178.31 357.69 166.38 370.31 C165.18 371.68 163.99 373.06 162.81 374.44 C155.98 382.24 148.5 388.87 140.38 395.31 C139.42 396.09 138.47 396.88 137.48 397.68 C123.47 408.91 107.66 417.8 91.38 425.31 C90.32 425.81 90.32 425.81 89.24 426.31 C70.33 435.07 50.07 440.78 29.38 443.31 C28.69 443.4 28.01 443.5 27.3 443.59 C-36.26 451.18 -101.19 430.9 -148.29 387.46 C-150.59 385.35 -152.94 383.3 -155.31 381.25 C-159.47 377.55 -163.05 373.57 -166.62 369.31 C-167.88 367.89 -167.88 367.89 -169.15 366.45 C-219.97 308.5 -235.11 224.45 -211.14 151.73 C-197.31 111.45 -171.67 73.3 -137.62 47.31 C-136.98 46.82 -136.34 46.33 -135.68 45.82 C-124.84 37.59 -113.73 30.52 -101.62 24.31 C-100.9 23.93 -100.17 23.55 -99.42 23.16 C-79.54 12.82 -57.81 5.57 -35.62 2.31 C-34.49 2.14 -33.35 1.96 -32.18 1.78 C-21.43 0.27 -10.84 -0.05 0 0 Z M-38.62 43.31 C-39.48 43.51 -40.34 43.7 -41.23 43.9 C-103.38 58.26 -155.12 106.7 -174.62 167.31 C-179.9 185.38 -182.02 203.24 -181.94 222 C-181.94 222.84 -181.93 223.67 -181.93 224.54 C-181.67 288.8 -146.51 348.44 -90.7 380.86 C-87.38 382.74 -84.01 384.55 -80.62 386.31 C-80.01 386.63 -79.4 386.95 -78.76 387.29 C-57.98 397.96 -33.63 404.37 -10.23 404.52 C-9.46 404.52 -8.68 404.53 -7.88 404.54 C-5.38 404.55 -2.88 404.56 -0.38 404.56 C0.48 404.56 1.33 404.56 2.21 404.56 C14.83 404.55 27.03 404.15 39.38 401.31 C40.14 401.15 40.91 400.98 41.7 400.81 C85.04 391.22 123.53 364.2 149.38 328.31 C149.81 327.71 150.24 327.12 150.68 326.5 C179.45 286.15 190.5 231.8 179.38 183.31 C179.21 182.55 179.04 181.78 178.87 180.99 C170.64 143.79 149.8 108.7 120.38 84.31 C119.5 83.55 118.63 82.8 117.74 82.02 C84.69 53.6 44.06 39.8 0.69 40 C-0.57 40 -0.57 40 -1.85 40.01 C-14.33 40.06 -26.43 40.45 -38.62 43.31 Z " fill="#5E6267" transform="translate(255.625,33.6875)"/>
<path d="M0 0 C0.67 0.44 1.35 0.88 2.04 1.33 C4.29 2.81 6.51 4.31 8.74 5.81 C10.36 6.9 11.99 7.98 13.62 9.06 C18.95 12.62 24.25 16.21 29.55 19.81 C33.35 22.39 37.15 24.96 40.95 27.53 C41.88 28.16 42.81 28.79 43.76 29.44 C49.29 33.17 54.83 36.87 60.4 40.53 C61.04 40.95 61.68 41.37 62.33 41.8 C65.21 43.69 68.08 45.58 70.97 47.45 C71.95 48.09 72.94 48.74 73.95 49.41 C74.79 49.95 75.63 50.49 76.49 51.05 C83.32 56.4 84.59 61.52 83.74 69.81 C78.7 81.81 58.43 90.68 47.93 97.56 C43.99 100.15 40.06 102.73 36.12 105.32 C35.15 105.95 34.18 106.59 33.18 107.25 C27.22 111.17 21.28 115.11 15.36 119.09 C14.65 119.56 13.95 120.03 13.23 120.51 C10.02 122.67 6.81 124.83 3.61 127 C2.49 127.75 1.37 128.51 0.24 129.26 C-0.71 129.9 -1.66 130.55 -2.64 131.21 C-8.34 134.69 -12.82 135.73 -19.26 133.81 C-25.12 130.18 -27.38 126.88 -27.4 119.93 C-27.41 118.92 -27.41 117.92 -27.42 116.88 C-27.42 115.78 -27.42 114.67 -27.42 113.54 C-27.43 112.37 -27.43 111.21 -27.44 110.01 C-27.45 106.16 -27.46 102.3 -27.46 98.45 C-27.47 96.45 -27.47 94.45 -27.48 92.45 C-27.49 86.88 -27.5 81.31 -27.5 75.74 C-27.51 68.54 -27.52 61.35 -27.55 54.15 C-27.57 48.58 -27.58 43.01 -27.58 37.44 C-27.59 34.12 -27.59 30.8 -27.61 27.47 C-27.63 23.76 -27.62 20.06 -27.62 16.35 C-27.63 15.25 -27.64 14.15 -27.65 13.02 C-27.6 4.8 -26.21 0.68 -19.26 -4.19 C-12.12 -6.57 -5.94 -4.05 0 0 Z " fill="#5E6267" transform="translate(193.26171875,191.1875)"/>
<path d="M0 0 C4.98 4.98 7.11 8.43 7.15 15.62 C7.16 16.79 7.17 17.96 7.18 19.17 C7.18 20.45 7.19 21.74 7.19 23.07 C7.2 24.43 7.21 25.8 7.22 27.17 C7.24 31.66 7.26 36.15 7.27 40.64 C7.28 42.18 7.28 43.73 7.29 45.28 C7.31 51.72 7.33 58.15 7.34 64.59 C7.36 73.81 7.39 83.03 7.45 92.25 C7.49 98.73 7.51 105.22 7.51 111.7 C7.51 115.58 7.53 119.45 7.56 123.32 C7.59 126.96 7.6 130.61 7.58 134.25 C7.58 136.22 7.61 138.19 7.63 140.15 C7.57 149.66 5.45 156.77 -3 162 C-9.87 164.83 -16.71 164.67 -23.31 161.31 C-30.03 155.53 -33.24 150.16 -33.26 141.25 C-33.27 140.12 -33.27 139 -33.28 137.84 C-33.28 136.62 -33.28 135.4 -33.27 134.15 C-33.28 132.85 -33.28 131.56 -33.29 130.22 C-33.3 126.68 -33.3 123.14 -33.3 119.6 C-33.3 116.63 -33.31 113.67 -33.31 110.71 C-33.32 103.72 -33.32 96.73 -33.32 89.74 C-33.31 82.54 -33.32 75.34 -33.34 68.14 C-33.36 61.95 -33.37 55.75 -33.36 49.56 C-33.36 45.87 -33.36 42.17 -33.38 38.48 C-33.39 34.36 -33.38 30.24 -33.37 26.11 C-33.38 24.9 -33.39 23.68 -33.4 22.43 C-33.33 11.84 -31.36 3.65 -22.44 -2.88 C-14.43 -5.5 -6.7 -5.23 0 0 Z " fill="#5E6267" transform="translate(361,176)"/>
</svg>
