<?xml version="1.0" encoding="UTF-8" standalone="no"?>
<!-- Generator: visioncortex VTracer 0.6.3 -->

<svg
   version="1.1"
   width="512"
   height="512"
   id="svg8"
   sodipodi:docname="ezgif-2-3f9eb86dc6.svg"
   xmlns:inkscape="http://www.inkscape.org/namespaces/inkscape"
   xmlns:sodipodi="http://sodipodi.sourceforge.net/DTD/sodipodi-0.dtd"
   xmlns="http://www.w3.org/2000/svg"
   xmlns:svg="http://www.w3.org/2000/svg">
  <defs
     id="defs12" />
  <sodipodi:namedview
     id="namedview10"
     pagecolor="#ffffff"
     bordercolor="#000000"
     borderopacity="0.25"
     inkscape:showpageshadow="2"
     inkscape:pageopacity="0.0"
     inkscape:pagecheckerboard="0"
     inkscape:deskcolor="#d1d1d1" />
  <path
     d="m 256.05079,478.83503 c -0.88,0 -1.76,0 -2.67,-0.01 -13.44,-0.05 -26.51,-0.55 -39.71,-3.3 -1.47,-0.3 -1.47,-0.3 -2.98,-0.6 -39.83,-8.24 -76.26,-26.62 -106.02,-54.4 -1.72,-1.52 -3.45,-3.05 -5.18,-4.57 -4.31,-3.89 -8.14,-7.94 -11.82,-12.43 -0.43,-0.52 -0.86,-1.04 -1.3,-1.57 -31.04,-37.44 -52.61,-85 -52.9,-134.29 -0.01,-0.81 -0.01,-1.63 -0.02,-2.47 -0.23,-34.11 -0.23,-34.11 3.22,-50.67 0.3,-1.48 0.3,-1.48 0.61,-2.98 4.32,-20.91 11.31,-40.23 21.39,-59.02 0.34,-0.64 0.68,-1.29 1.02,-1.95 8.07,-15.39 18.05,-29.43 29.98,-42.05 1.2,-1.37 2.39,-2.75 3.57,-4.13 6.83,-7.799996 14.31,-14.429996 22.43,-20.869996 0.96,-0.78 1.91,-1.57 2.9,-2.37 14.01,-11.23 29.82,-20.12 46.1,-27.63 1.06,-0.5 1.06,-0.5 2.14,-1 18.91,-8.76 39.17,-14.47 59.86,-17 0.69,-0.09 1.37,-0.19 2.08,-0.28 63.56,-7.59 128.49,12.69 175.59,56.13 2.3,2.11 4.65,4.16 7.02,6.21 4.16,3.699996 7.74,7.679996 11.31,11.939996 1.26,1.42 1.26,1.42 2.53,2.86 50.82,57.95 65.96,142 41.99,214.72 -13.83,40.28 -39.47,78.43 -73.52,104.42 -0.64,0.49 -1.28,0.98 -1.94,1.49 -10.84,8.23 -21.95,15.3 -34.06,21.51 -0.72,0.38 -1.45,0.76 -2.2,1.15 -19.88,10.34 -41.61,17.59 -63.8,20.85 -1.13,0.17 -2.27,0.35 -3.44,0.53 -10.75,1.51 -21.34,1.83 -32.18,1.78 z m 38.62,-43.31 c 0.86,-0.2 1.72,-0.39 2.61,-0.59 62.15,-14.36 113.89,-62.8 133.39,-123.41 5.28,-18.07 7.4,-35.93 7.32,-54.69 0,-0.84 -0.01,-1.67 -0.01,-2.54 -0.26,-64.26 -35.42,-123.9 -91.23,-156.319996 -3.32,-1.88 -6.69,-3.69 -10.08,-5.45 -0.61,-0.32 -1.22,-0.64 -1.86,-0.98 -20.78,-10.67 -45.13,-17.08 -68.53,-17.23 -0.77,0 -1.55,-0.01 -2.35,-0.02 -2.5,-0.01 -5,-0.02 -7.5,-0.02 -0.86,0 -1.71,0 -2.59,0 -12.62,0.01 -24.82,0.41 -37.17,3.25 -0.76,0.16 -1.53,0.33 -2.32,0.5 -43.34,9.59 -81.83,36.609996 -107.68,72.499996 -0.43,0.6 -0.86,1.19 -1.3,1.81 -28.77,40.35 -39.82,94.7 -28.7,143.19 0.17,0.76 0.34,1.53 0.51,2.32 8.23,37.2 29.07,72.29 58.49,96.68 0.88,0.76 1.75,1.51 2.64,2.29 33.05,28.42 73.68,42.22 117.05,42.02 1.26,0 1.26,0 2.54,-0.01 12.48,-0.05 24.58,-0.44 36.77,-3.3 z"
     fill="#5e6267"
     id="path2" />
  <path
     d="m 318.41407,321.33503 c -0.67,-0.44 -1.35,-0.88 -2.04,-1.33 -2.25,-1.48 -4.47,-2.98 -6.7,-4.48 -1.62,-1.09 -3.25,-2.17 -4.88,-3.25 -5.33,-3.56 -10.63,-7.15 -15.93,-10.75 -3.8,-2.58 -7.6,-5.15 -11.4,-7.72 -0.93,-0.63 -1.86,-1.26 -2.81,-1.91 -5.53,-3.73 -11.07,-7.43 -16.64,-11.09 -0.64,-0.42 -1.28,-0.84 -1.93,-1.27 -2.88,-1.89 -5.75,-3.78 -8.64,-5.65 -0.98,-0.64 -1.97,-1.29 -2.98,-1.96 -0.84,-0.54 -1.68,-1.08 -2.54,-1.64 -6.83,-5.35 -8.1,-10.47 -7.25,-18.76 5.04,-12 25.31,-20.87 35.81,-27.75 3.94,-2.59 7.87,-5.17 11.81,-7.76 0.97,-0.63 1.94,-1.27 2.94,-1.93 5.96,-3.92 11.9,-7.86 17.82,-11.84 0.71,-0.47 1.41,-0.94 2.13,-1.42 3.21,-2.16 6.42,-4.32 9.62,-6.49 1.12,-0.75 2.24,-1.51 3.37,-2.26 0.95,-0.64 1.9,-1.29 2.88,-1.95 5.7,-3.48 10.18,-4.52 16.62,-2.6 5.86,3.63 8.12,6.93 8.14,13.88 0.01,1.01 0.01,2.01 0.02,3.05 0,1.1 0,2.21 0,3.34 0.01,1.17 0.01,2.33 0.02,3.53 0.01,3.85 0.02,7.71 0.02,11.56 0.01,2 0.01,4 0.02,6 0.01,5.57 0.02,11.14 0.02,16.71 0.01,7.2 0.02,14.39 0.05,21.59 0.02,5.57 0.03,11.14 0.03,16.71 0.01,3.32 0.01,6.64 0.03,9.97 0.02,3.71 0.01,7.41 0.01,11.12 0.01,1.1 0.02,2.2 0.03,3.33 -0.05,8.22 -1.44,12.34 -8.39,17.21 -7.14,2.38 -13.32,-0.14 -19.26,-4.19 z"
     fill="#5e6267"
     id="path4" />
  <path
     d="m 150.67579,336.52253 c -4.98,-4.98 -7.11,-8.43 -7.15,-15.62 -0.01,-1.17 -0.02,-2.34 -0.03,-3.55 0,-1.28 -0.01,-2.57 -0.01,-3.9 -0.01,-1.36 -0.02,-2.73 -0.03,-4.1 -0.02,-4.49 -0.04,-8.98 -0.05,-13.47 -0.01,-1.54 -0.01,-3.09 -0.02,-4.64 -0.02,-6.44 -0.04,-12.87 -0.05,-19.31 -0.02,-9.22 -0.05,-18.44 -0.11,-27.66 -0.04,-6.48 -0.06,-12.97 -0.06,-19.45 0,-3.88 -0.02,-7.75 -0.05,-11.62 -0.03,-3.64 -0.04,-7.29 -0.02,-10.93 0,-1.97 -0.03,-3.94 -0.05,-5.9 0.06,-9.51 2.18,-16.62 10.63,-21.85 6.87,-2.83 13.71,-2.67 20.31,0.69 6.72,5.78 9.93,11.15 9.95,20.06 0.01,1.13 0.01,2.25 0.02,3.41 0,1.22 0,2.44 -0.01,3.69 0.01,1.3 0.01,2.59 0.02,3.93 0.01,3.54 0.01,7.08 0.01,10.62 0,2.97 0.01,5.93 0.01,8.89 0.01,6.99 0.01,13.98 0.01,20.97 -0.01,7.2 0,14.4 0.02,21.6 0.02,6.19 0.03,12.39 0.02,18.58 0,3.69 0,7.39 0.02,11.08 0.01,4.12 0,8.24 -0.01,12.37 0.01,1.21 0.02,2.43 0.03,3.68 -0.07,10.59 -2.04,18.78 -10.96,25.31 -8.01,2.62 -15.74,2.35 -22.44,-2.88 z"
     fill="#5e6267"
     id="path6" />
</svg>
